Coordinates
version=1
nRows=19
nColumns=36
inDegrees=yes

Units are S.I. units (second, meters, Newtons, ...)
If the header above contains a line with 'inDegrees', this indicates whether rotational values are in degrees (yes) or radians (no).

endheader
time	pelvis_tilt	pelvis_list	pelvis_rotation	pelvis_tx	pelvis_ty	pelvis_tz	hip_flexion_r	hip_adduction_r	hip_rotation_r	knee_angle_r	knee_angle_r_beta	ankle_angle_r	subtalar_angle_r	mtp_angle_r	hip_flexion_l	hip_adduction_l	hip_rotation_l	knee_angle_l	knee_angle_l_beta	ankle_angle_l	subtalar_angle_l	mtp_angle_l	lumbar_extension	lumbar_bending	lumbar_rotation	arm_flex_r	arm_add_r	arm_rot_r	elbow_flex_r	pro_sup_r	arm_flex_l	arm_add_l	arm_rot_l	elbow_flex_l	pro_sup_l
     30.25000000	     -8.22951384	      0.85800817	     -2.40308741	      0.86076227	      0.78910787	      0.70654513	     -3.42439260	      0.10659954	      1.19445318	     22.04118324	      0.38469122	     13.94594063	     -0.24467658	     -7.49999987	     32.95607504	      0.63592008	     -0.67386405	     17.47357422	      0.30497140	      3.45157637	      0.76984948	     -7.49999987	      8.44902503	     -0.79462463	      4.66648277	      5.23954724	    -13.75939368	     13.89885382	     17.64627459	     92.79915228	      3.86411646	     -8.50167159	     11.12494279	      8.70227047	     94.85796582
     30.26666670	     -8.17719663	      1.28733122	     -2.77785934	      0.86371771	      0.79245635	      0.70687968	     -1.98691509	     -0.49830797	      1.84361074	     26.24196497	      0.45800869	     11.17712903	     -2.75858821	     -7.49999987	     32.13148310	      1.02498977	     -0.94963012	     18.41033660	      0.32132099	      3.43898498	     -0.44461193	     -7.49999987	      8.81296840	     -1.36388924	      4.70084384	      4.55567387	    -13.32857126	     13.71711381	     17.07562083	     93.09337486	      3.72206552	     -8.73779924	     11.15496170	      8.79547682	     95.03056150
     30.28333330	     -8.54903235	      1.62335507	     -2.99340774	      0.86674105	      0.79550656	      0.70656016	      0.42353425	     -1.00614207	      2.08388680	     31.23270314	      0.54511350	      6.88642313	     -5.06491449	     -7.49999987	     31.57436468	      1.41419046	     -1.13022672	     19.09376284	      0.33324903	      4.06540898	     -1.16596024	     -7.49999987	      9.92416843	     -1.80910408	      4.54262583	      3.64309890	    -12.73080621	     12.81109061	     16.10857874	     94.15928832	      3.40342479	     -8.96793649	     11.11152367	      8.75968258	     95.51372468
     30.30000000	     -7.95759762	      2.02468842	     -3.03255322	      0.86679446	      0.79833830	      0.70523852	      2.17187997	     -1.69871740	      1.82992154	     36.60728082	      0.63891758	      2.48211980	     -6.00222112	     -7.49999987	     29.76395620	      2.05907761	     -1.17245835	     19.27465754	      0.33640624	      4.98862587	     -1.72982147	     -7.49999987	      9.43704616	     -2.55917785	      4.05903390	      2.98633537	    -12.20529183	     12.70844666	     15.70806459	     94.30816480	      3.43892482	     -9.29444681	     11.05513038	      8.74323441	     95.56460375
     30.31666670	     -7.97371876	      2.44543185	     -3.33586671	      0.86409720	      0.79851930	      0.70371584	      5.01792993	     -2.13031404	      2.38776356	     42.15594126	      0.73575997	     -2.87545960	     -8.69128888	     -7.49999987	     28.42326199	      2.57935857	     -1.40455584	     19.00407250	      0.33168364	      5.86758768	     -2.11748268	     -7.49999987	      9.79750193	     -3.01567601	      3.82752805	      2.29728449	    -11.56173341	     12.03936442	     14.48766403	     94.70796257	      3.38188686	     -9.58796629	     10.72449414	      8.90384517	     95.61555465
     30.33333330	     -7.89280779	      2.79883796	     -3.55834457	      0.86019339	      0.79800144	      0.70203733	      8.07333363	     -2.53414582	      2.56753537	     47.59985479	      0.83077419	     -6.65704392	    -10.23390242	     -7.49999987	     27.00143579	      3.08924938	     -1.57591852	     18.59075607	      0.32446990	      6.69300882	     -2.49933958	     -7.49999987	      9.62691409	     -3.42535811	      3.30303363	      1.85949728	    -11.06214250	     11.34846728	     13.70727685	     94.73414280	      3.50329051	     -9.89107367	     10.32512726	      9.05471565	     95.33012512
     30.35000000	     -8.07186412	      3.02646395	     -3.75860825	      0.85655572	      0.79791591	      0.70073259	     11.56786407	     -2.71669904	      2.66985846	     52.60578920	      0.91814423	     -8.60236998	    -11.51899841	     -7.49999987	     26.01637308	      3.43726797	     -1.67679271	     18.32154031	      0.31977120	      7.39194607	     -3.05072973	     -7.49999987	      9.57693527	     -3.63348201	      2.78793099	      1.59599592	    -10.63958542	     10.36010944	     12.92372298	     94.81879706	      3.79189804	    -10.12744695	      9.80781511	      9.23443665	     95.06666035
     30.36666670	     -8.18498396	      3.16028375	     -4.00573411	      0.85420981	      0.79891649	      0.69959288	     14.92872326	     -2.74412353	      2.72416451	     56.89306342	      0.99297128	     -8.73547659	    -12.30544077	     -7.49999987	     25.01748062	      3.64955005	     -1.82387654	     18.06477217	      0.31528975	      7.78177427	     -3.72826465	     -7.49999987	      9.29418627	     -3.71640664	      2.26161505	      1.46362783	    -10.36607366	      9.67828040	     12.54298244	     94.81974359	      4.18767759	    -10.36961406	      9.50771733	      9.45223948	     94.90626697
     30.38333330	     -8.81977251	      3.09254975	     -4.13844003	      0.85379030	      0.79927142	      0.69766454	     18.62866902	     -2.52701684	      2.54788092	     60.45994934	      1.05522518	     -7.61311691	    -12.70516157	     -7.49999987	     24.76079692	      3.64871780	     -1.75587692	     18.13083459	      0.31644276	      8.11414175	     -4.60422225	     -7.49999987	      9.76927258	     -3.52541523	      1.76691770	      1.19785040	    -10.14242588	      8.56672871	     11.98553521	     94.75033861	      4.51396061	    -10.49817580	      9.05388819	      9.60274797	     94.65479050
     30.40000000	     -8.71097825	      2.75510885	     -4.20178093	      0.85397457	      0.80000818	      0.69474260	     21.05238675	     -2.06575219	      2.26273627	     62.88459565	      1.09754324	     -6.30103907	    -13.46669117	     -7.49999987	     23.53248775	      3.44881150	     -1.61000509	     17.94020201	      0.31311559	      8.53998623	     -4.81215417	     -7.49999987	      9.15820749	     -3.04756501	      1.13188544	      0.97033066	    -10.28061144	      8.42511586	     12.02057210	     94.62191740	      5.07436378	    -10.51864794	      9.00102476	      9.98618275	     94.51679727
     30.41666670	     -9.56488404	      2.89152337	     -4.23027620	      0.85278128	      0.79816413	      0.69155727	     24.61215707	     -2.08219523	      2.17662041	     65.09801234	      1.13617465	     -3.30507303	    -12.68799935	     -7.49999987	     23.44268677	      3.67811328	     -1.52118944	     17.90421084	      0.31248743	      8.67473461	     -5.79593833	     -7.49999987	     10.23319680	     -3.07817914	      0.54516614	      0.56899760	    -10.01451484	      7.58681648	     11.16409827	     94.42471355	      5.29431709	    -10.70577029	      8.57207082	      9.98675503	     94.21563575
     30.43333330	    -10.10899703	      2.72302060	     -4.10145689	      0.84916620	      0.79681027	      0.68822404	     27.57569107	     -1.78340956	      2.09729770	     66.27568551	      1.15672893	     -0.35175735	    -12.64340018	     -7.49999987	     22.99612389	      3.69558409	     -1.21925148	     17.91909933	      0.31274728	      9.18123151	     -6.10716683	     -7.49999987	     10.76803972	     -2.65715925	     -0.20137628	      0.06828213	    -10.00286215	      6.84527380	     10.70911324	     94.23231508	      5.69691251	    -10.72664433	      8.17536857	     10.25314835	     93.88339177
     30.45000000	    -10.79381051	      2.52119582	     -3.81330059	      0.84330560	      0.79668770	      0.68493648	     30.52556945	     -1.47320678	      2.02695181	     66.36196362	      1.15823476	      3.21400952	    -12.33522382	     -7.49999987	     22.68219455	      3.68677654	     -1.10526783	     17.89048961	      0.31224795	      9.82879152	     -6.22022767	     -7.49999987	     11.36869587	     -2.33514218	     -1.05770523	     -0.42108490	    -10.06178618	      5.93728349	     10.34596047	     94.02722099	      6.25304870	    -10.83266495	      7.71596421	     10.68175734	     93.47501314
     30.46666670	    -11.41354739	      2.24708737	     -3.50907250	      0.83643697	      0.79857177	      0.68255425	     33.19826632	     -1.07682048	      2.08611802	     65.18968593	      1.13777466	      6.30793380	    -12.44692618	     -7.49999987	     22.33924386	      3.61650363	     -0.85209717	     17.90916145	      0.31257383	     10.56855178	     -5.97433049	     -7.49999987	     11.66130720	     -1.84912184	     -1.90151361	     -0.89043403	    -10.09663318	      5.02940145	     10.22347522	     93.86253819	      6.79042514	    -10.96819541	      7.37307132	     11.22374028	     93.10516682
     30.48333330	    -12.12106582	      1.84577639	     -3.16446869	      0.83198800	      0.80176273	      0.68207896	     35.46925332	     -0.65409981	      2.04046115	     62.45648188	      1.09007125	      8.77449798	    -12.37362834	     -7.49999987	     22.08246603	      3.41947958	     -0.43880942	     17.90638905	      0.31252545	     11.28299672	     -5.62848079	     -7.49999987	     12.10363180	     -1.20638614	     -2.71520006	     -1.25437268	    -10.16300549	      4.49351824	     10.12632614	     91.06927150	      7.32154978	    -10.99678222	      7.01799048	     11.77042451	     90.28601195
     30.50000000	    -12.49269358	      1.53895218	     -2.95184080	      0.83163041	      0.80517272	      0.68333194	     36.85870685	     -0.34420103	      2.06210577	     58.50106814	      1.02103625	     10.29063024	    -12.31121254	     -7.49999987	     21.27462535	      3.24947326	     -0.21319569	     17.57651485	      0.30676806	     11.86662282	     -5.07671856	     -7.49999987	     12.26030465	     -0.66955749	     -3.19340502	     -1.67776357	    -10.26366184	      4.37915546	     10.51981180	     90.95509179	      7.77685350	    -11.18641682	      7.04167514	     12.44302085	     90.16135439
     30.51666670	    -12.80988193	      1.37675223	     -2.81220465	      0.83283584	      0.80712571	      0.68444789	     37.76417230	     -0.18229817	      2.10745341	     53.89779916	      0.94069405	     10.97575759	    -11.99698127	     -7.49999987	     20.33154639	      3.16332659	      0.00171870	     17.15633072	      0.29943446	     12.30216963	     -4.53618876	     -7.49999987	     12.60009136	     -0.60184816	     -3.58692762	     -2.13100111	    -10.19833208	      4.30896367	     10.79121159	     90.92937149	      7.95008310	    -11.43203623	      7.04479348	     12.85411343	     90.12323365
     30.53333330	    -12.68572099	      0.91298459	     -2.59814188	      0.83223620	      0.80749679	      0.68362036	     37.79613323	      0.10007987	      1.86727371	     48.90713323	      0.85359050	     10.69419523	    -11.88886892	     -7.49999987	     18.91809472	      2.77790702	      0.18832351	     16.70269104	      0.29151695	     13.03129979	     -3.45702748	     -7.49999987	     12.45191928	      0.01249694	     -4.34934705	     -1.89991562	    -10.24264628	      4.11796028	     10.36501341	     91.44390067	      8.16929900	    -11.53244456	      7.14728412	     12.79373564	     90.54660165
     30.55000000	    -12.37279995	      0.81673887	     -2.60222663	      0.83017293	      0.80521786	      0.68210310	     37.58860234	      0.10933306	      1.98651790	     44.18444823	      0.77116410	      9.99160382	    -11.78869084	     -7.49999987	     17.26058663	      2.68901286	     -0.06373836	     15.94560952	      0.27830339	     13.57323710	     -2.23692220	     -7.49999987	     12.20154909	      0.14073030	     -4.80824508	     -1.84946822	    -10.22020614	      2.37294784	     10.47823871	     96.76870180	      8.10964446	    -11.81101724	      5.81077899	     13.52487760	     93.44816641
